<svg fill="none" xmlns="http://www.w3.org/2000/svg" viewBox="0 0 512 512">
    <style>
        @media (prefers-color-scheme: dark) {
            .a { fill: #E6FF55; }
            .b { fill: #00473C; }
        }
    </style>
    <path class="a" d="M512 0H0v512h512V0z" fill="#E6FF55"/>
    <path class="b" d="M327.48 263.7c-20.65 0-35.93-11.87-35.93-33.22 0-22.07 14.96-34.04 35.93-34.04s35.94 12.07 35.94 34.04c0 21.45-15.18 33.22-35.94 33.22zm-33.3 38h-26.03c6.43 29.57 31.72 43.42 65.76 43.42 34.04 0 56.8-15.4 56.8-38.84 0-18.42-13.6-26.86-34.25-32.48 21.18-5.94 33.09-22.28 33.09-43.84a46.59 46.59 0 00-11.28-30.71c6.01-1.36 12.23-1.56 18.44-.42v-22.8c-13.06-.42-22.97 3.85-30.56 12.28-10.85-7.08-24.34-11.14-38.88-11.14-36.14 0-61.86 21.87-61.86 52.69 0 40.71 34.46 50.19 67.66 57.79 26.03 5.93 31.5 11.87 31.5 20.4 0 9.8-7.58 17.91-31.08 17.91-20.23.1-34.04-7.18-39.3-24.26zm-100.85 16.14c32.67 0 55.86-16.87 55.86-42.06 0-52.06-93.69-30.2-93.69-60.91 0-11.87 10.12-18.64 28.56-18.64 20.66 0 34.04 9.06 39.1 28.22h25.08c-5.8-30.2-29.2-47.28-64.39-47.28-32.25 0-53.85 15.94-53.85 39.99 0 51.64 93.37 28.21 93.37 61.12 0 12.7-10.54 20.4-31.09 20.4-21.39 0-34.04-9.37-38.46-29.57H128c6.22 32.38 29.72 48.73 65.33 48.73z" fill="#00473C"/>
</svg>
